<?xml version="1.0" standalone="no"?><!DOCTYPE svg PUBLIC "-//W3C//DTD SVG 1.1//EN" "http://www.w3.org/Graphics/SVG/1.1/DTD/svg11.dtd"><svg width="200" height="200" viewBox="0 0 200 200" version="1.1" xmlns="http://www.w3.org/2000/svg" xmlns:xlink="http://www.w3.org/1999/xlink"><defs><style type="text/css"><![CDATA[

]]></style></defs><g class="transform-group"><g transform="scale(0.1953125, 0.1953125)"><path d="M512 854.016q123.989333 0 210.986667-88.021333t86.997333-212.010667-86.997333-210.986667-210.986667-86.997333-210.986667 86.997333-86.997333 210.986667 86.997333 212.010667 210.986667 88.021333zM512 169.984q160 0 272 112.981333t112 271.018667-112 271.018667-272 112.981333-272-112.981333-112-271.018667 112-271.018667 272-112.981333zM534.016 342.016l0 224 169.984 100.010667-32 52.010667-201.984-120.021333 0-256 64 0zM336 144l-196.010667 164.010667-54.016-64 196.010667-164.010667zM937.984 244.010667l-54.016 66.005333-196.010667-166.016 54.016-64z" fill="#ffffff"></path></g></g></svg>