<?xml version="1.0" standalone="no"?><!DOCTYPE svg PUBLIC "-//W3C//DTD SVG 1.1//EN" "http://www.w3.org/Graphics/SVG/1.1/DTD/svg11.dtd"><svg width="200" height="200" viewBox="0 0 200 200" version="1.1" xmlns="http://www.w3.org/2000/svg" xmlns:xlink="http://www.w3.org/1999/xlink"><defs><style type="text/css"><![CDATA[

]]></style></defs><g class="transform-group"><g transform="scale(0.1953125, 0.1953125)"><path d="M896 681.984l0-512-768 0 0 512 768 0zM896 86.016q34.005333 0 59.989333 25.002667t25.984 59.008l0 512q0 34.005333-25.984 59.989333t-59.989333 25.984l-297.984 0 0 86.016 84.010667 0 0 84.010667-340.010667 0 0-84.010667 84.010667 0 0-86.016-297.984 0q-34.005333 0-59.989333-25.984t-25.984-59.989333l0-512q0-34.005333 25.984-59.008t59.989333-25.002667l768 0z" fill="#ffffff"></path></g></g></svg>