<?xml version="1.0" standalone="no"?><!DOCTYPE svg PUBLIC "-//W3C//DTD SVG 1.1//EN" "http://www.w3.org/Graphics/SVG/1.1/DTD/svg11.dtd"><svg width="200" height="200" viewBox="0 0 200 200" version="1.1" xmlns="http://www.w3.org/2000/svg" xmlns:xlink="http://www.w3.org/1999/xlink"><defs><style type="text/css"><![CDATA[

]]></style></defs><g class="transform-group"><g transform="scale(0.1953125, 0.1953125)"><path d="M553.984 384l235.989333 0-235.989333-233.984 0 233.984zM681.984 598.016l0-86.016-340.010667 0 0 86.016 340.010667 0zM681.984 768l0-86.016-340.010667 0 0 86.016 340.010667 0zM598.016 86.016l256 256 0 512q0 34.005333-25.984 59.008t-59.989333 25.002667l-512 0q-34.005333 0-59.989333-25.002667t-25.984-59.008l2.005333-683.989333q0-34.005333 25.002667-59.008t59.008-25.002667l342.016 0z" fill="#ffffff"></path></g></g></svg>