<?xml version="1.0" encoding="utf-8"?>
<!DOCTYPE svg PUBLIC "-//W3C//DTD SVG 1.1//EN" "http://www.w3.org/Graphics/SVG/1.1/DTD/svg11.dtd">
<svg style="width:308px;height:308px;" version="1.1" id="图形" xmlns="http://www.w3.org/2000/svg" xmlns:xlink="http://www.w3.org/1999/xlink" x="0px" y="0px" width="1024px" height="1024px" viewBox="0 0 1024 1024" enable-background="new 0 0 1024 1024" xml:space="preserve">
  <path class="svgpath" data-index="path_0" fill="#ffffff" d="M297.984 297.984l598.016 0 0 86.016-598.016 0 0-86.016zM297.984 726.016l0-86.016 598.016 0 0 86.016-598.016 0zM297.984 553.984l0-84.010667 598.016 0 0 84.010667-598.016 0zM128 384l0-86.016 86.016 0 0 86.016-86.016 0zM128 726.016l0-86.016 86.016 0 0 86.016-86.016 0zM128 553.984l0-84.010667 86.016 0 0 84.010667-86.016 0z" />

</svg>
