<?xml version="1.0" encoding="utf-8"?>
<!DOCTYPE svg PUBLIC "-//W3C//DTD SVG 1.1//EN" "http://www.w3.org/Graphics/SVG/1.1/DTD/svg11.dtd">
<svg style="width:308px;height:308px;" version="1.1" id="图形" xmlns="http://www.w3.org/2000/svg" xmlns:xlink="http://www.w3.org/1999/xlink" x="0px" y="0px" width="1024px" height="1024px" viewBox="0 0 1024 1024" enable-background="new 0 0 1024 1024" xml:space="preserve">
  <path class="svgpath" data-index="path_0" fill="#ffffff" d="M512 681.984q34.005333 0 59.989333 25.984t25.984 59.989333-25.984 59.989333-59.989333 25.984-59.989333-25.984-25.984-59.989333 25.984-59.989333 59.989333-25.984zM512 425.984q34.005333 0 59.989333 25.984t25.984 59.989333-25.984 59.989333-59.989333 25.984-59.989333-25.984-25.984-59.989333 25.984-59.989333 59.989333-25.984zM512 342.016q-34.005333 0-59.989333-25.984t-25.984-59.989333 25.984-59.989333 59.989333-25.984 59.989333 25.984 25.984 59.989333-25.984 59.989333-59.989333 25.984z" />

</svg>
