<?xml version="1.0" standalone="no"?><!DOCTYPE svg PUBLIC "-//W3C//DTD SVG 1.1//EN" "http://www.w3.org/Graphics/SVG/1.1/DTD/svg11.dtd"><svg width="200" height="200" viewBox="0 0 200 200" version="1.1" xmlns="http://www.w3.org/2000/svg" xmlns:xlink="http://www.w3.org/1999/xlink"><defs><style type="text/css"><![CDATA[

]]></style></defs><g class="transform-group"><g transform="scale(0.1953125, 0.1953125)"><path d="M768 681.984l86.016 86.016 0 41.984-683.989333 0 0-41.984 86.016-86.016 0-212.010667q0-100.010667 50.986667-173.994667t141.013333-96l0-29.994667q0-25.984 18.005333-45.013333t45.994667-18.986667 45.994667 18.986667 18.005333 45.013333l0 29.994667q89.984 22.016 141.013333 96t50.986667 173.994667l0 212.010667zM512 937.984q-36.010667 0-61.013333-25.002667t-25.002667-59.008l171.989333 0q0 34.005333-25.984 59.008t-59.989333 25.002667z" fill="#ffffff"></path></g></g></svg>