<?xml version="1.0" encoding="utf-8"?>
<!DOCTYPE svg PUBLIC "-//W3C//DTD SVG 1.1//EN" "http://www.w3.org/Graphics/SVG/1.1/DTD/svg11.dtd">
<svg style="width:308px;height:308px;" version="1.1" id="图形" xmlns="http://www.w3.org/2000/svg" xmlns:xlink="http://www.w3.org/1999/xlink" x="0px" y="0px" width="1024px" height="1024px" viewBox="0 0 1024 1024" enable-background="new 0 0 1024 1024" xml:space="preserve">
  <path class="svgpath" data-index="path_0" fill="#ffffff" d="M512 489.984q43.989333 0 75.008-31.018667t31.018667-75.008-31.018667-75.008-75.008-31.018667-75.008 31.018667-31.018667 75.008 31.018667 75.008 75.008 31.018667zM512 86.016q123.989333 0 210.986667 86.997333t86.997333 210.986667q0 61.994667-31.018667 141.994667t-75.008 150.016-86.997333 130.986667-73.002667 96.981333l-32 34.005333q-11.989333-13.994667-32-36.992t-72.021333-91.989333-91.008-134.016-70.997333-146.986667-32-144q0-123.989333 86.997333-210.986667t210.986667-86.997333z" />

</svg>
