<?xml version="1.0" encoding="utf-8"?>
<!DOCTYPE svg PUBLIC "-//W3C//DTD SVG 1.1//EN" "http://www.w3.org/Graphics/SVG/1.1/DTD/svg11.dtd">
<svg style="width:308px;height:308px;" version="1.1" id="图形" xmlns="http://www.w3.org/2000/svg" xmlns:xlink="http://www.w3.org/1999/xlink" x="0px" y="0px" width="1024px" height="1024px" viewBox="0 0 1024 1024" enable-background="new 0 0 1024 1024" xml:space="preserve">
  <path class="svgpath" data-index="path_0" fill="#ffffff" d="M406.016 598.016q80 0 136.021333-56.021333t56.021333-136.021333-56.021333-136.021333-136.021333-56.021333-136.021333 56.021333-56.021333 136.021333 56.021333 136.021333 136.021333 56.021333zM662.016 598.016l212.010667 212.010667-64 64-212.010667-212.010667 0-34.005333-11.989333-11.989333q-75.989333 66.005333-180.010667 66.005333-116.010667 0-196.992-80t-80.981333-196.010667 80.981333-196.992 196.992-80.981333 196.010667 80.981333 80 196.992q0 104.021333-66.005333 180.010667l11.989333 11.989333 34.005333 0z" />

</svg>
