<?xml version="1.0" encoding="utf-8"?>
<!DOCTYPE svg PUBLIC "-//W3C//DTD SVG 1.1//EN" "http://www.w3.org/Graphics/SVG/1.1/DTD/svg11.dtd">
<svg style="width:308px;height:308px;" version="1.1" id="图形" xmlns="http://www.w3.org/2000/svg" xmlns:xlink="http://www.w3.org/1999/xlink" x="0px" y="0px" width="1024px" height="1024px" viewBox="0 0 1024 1024" enable-background="new 0 0 1024 1024" xml:space="preserve">
  <path class="svgpath" data-index="path_0" fill="#ffffff" d="M512 662.016q61.994667 0 105.984-43.989333t43.989333-105.984-43.989333-105.984-105.984-43.989333-105.984 43.989333-43.989333 105.984 43.989333 105.984 105.984 43.989333zM829.994667 553.984l89.984 70.016q13.994667 9.984 4.010667 27.989333l-86.016 148.010667q-8.021333 13.994667-25.984 8.021333l-105.984-41.984q-41.984 29.994667-72.021333 41.984l-16 112q-4.010667 18.005333-20.010667 18.005333l-171.989333 0q-16 0-20.010667-18.005333l-16-112q-38.016-16-72.021333-41.984l-105.984 41.984q-18.005333 6.016-25.984-8.021333l-86.016-148.010667q-9.984-18.005333 4.010667-27.989333l89.984-70.016q-2.005333-13.994667-2.005333-41.984t2.005333-41.984l-89.984-70.016q-13.994667-9.984-4.010667-27.989333l86.016-148.010667q8.021333-13.994667 25.984-8.021333l105.984 41.984q41.984-29.994667 72.021333-41.984l16-112q4.010667-18.005333 20.010667-18.005333l171.989333 0q16 0 20.010667 18.005333l16 112q38.016 16 72.021333 41.984l105.984-41.984q18.005333-6.016 25.984 8.021333l86.016 148.010667q9.984 18.005333-4.010667 27.989333l-89.984 70.016q2.005333 13.994667 2.005333 41.984t-2.005333 41.984z" />

</svg>
